<?xml version="1.0" encoding="UTF-8" standalone="no"?>
<svg width="30px" height="50px" viewBox="0 0 30 50" version="1.1" xmlns="http://www.w3.org/2000/svg" xmlns:xlink="http://www.w3.org/1999/xlink">
    <!-- Generator: Sketch 3.6.1 (26313) - http://www.bohemiancoding.com/sketch -->
    <title>Combined Shape Copy</title>
    <desc>Created with Sketch.</desc>
    <defs></defs>
    <g id="Page-1" stroke="none" stroke-width="1" fill="none" fill-rule="evenodd">
        <g id="Style-guide-v2" transform="translate(-379.000000, -1211.000000)" fill="#FFC952">
            <g id="Group-Copy-3" transform="translate(133.000000, 1150.000000)">
                <path d="M249.076901,84.1199577 C248.860458,83.7630637 248.656924,83.3954169 248.46676,83.017786 C247.423041,80.9451513 246.408586,78.4996415 246.408586,76 C246.408586,67.7157288 252.954729,61 261.239,61 C269.523271,61 275.983657,67.7157288 275.983657,76 C276.098763,76.8545193 275.987376,77.852912 275.682396,78.9214106 C275.668829,79.1052382 275.618804,79.3020156 275.52884,79.5065911 L275.360811,79.8886846 C275.185397,80.3530087 274.97744,80.8258701 274.73939,81.3017745 L262.097608,110.048762 C261.645651,111.076498 260.926225,111.064924 260.479357,110.048762 L249.076901,84.1199577 Z" id="Combined-Shape-Copy"></path>
            </g>
        </g>
    </g>
</svg>