<?xml version="1.0" encoding="UTF-8" standalone="no"?>
<svg width="30px" height="50px" viewBox="0 0 30 50" version="1.1" xmlns="http://www.w3.org/2000/svg" xmlns:xlink="http://www.w3.org/1999/xlink">
    <!-- Generator: Sketch 3.6.1 (26313) - http://www.bohemiancoding.com/sketch -->
    <title>Combined Shape Copy</title>
    <desc>Created with Sketch.</desc>
    <defs></defs>
    <g id="Page-1" stroke="none" stroke-width="1" fill="none" fill-rule="evenodd">
        <g id="Style-guide-v2" transform="translate(-178.000000, -1211.000000)" fill="#BE5290">
            <g id="Group-Copy-3" transform="translate(133.000000, 1150.000000)">
                <path d="M47.6683148,84.1199577 C47.4518722,83.7630637 47.2483384,83.3954169 47.0581743,83.017786 C46.0144548,80.9451513 45,78.4996415 45,76 C45,67.7157288 51.5461429,61 59.8304141,61 C68.1146854,61 74.5750713,67.7157288 74.5750713,76 C74.6901769,76.8545193 74.5787904,77.852912 74.2738102,78.9214106 C74.2602437,79.1052382 74.2102187,79.3020156 74.1202545,79.5065911 L73.952225,79.8886846 C73.7768109,80.3530087 73.5688539,80.8258701 73.3308043,81.3017745 L60.6890227,110.048762 C60.2370652,111.076498 59.5176393,111.064924 59.0707716,110.048762 L47.6683148,84.1199577 Z" id="Combined-Shape-Copy"></path>
            </g>
        </g>
    </g>
</svg>