<?xml version="1.0" encoding="UTF-8" standalone="no"?>
<svg width="31px" height="50px" viewBox="0 0 31 50" version="1.1" xmlns="http://www.w3.org/2000/svg" xmlns:xlink="http://www.w3.org/1999/xlink">
    <!-- Generator: Sketch 3.6.1 (26313) - http://www.bohemiancoding.com/sketch -->
    <title>Combined Shape Copy</title>
    <desc>Created with Sketch.</desc>
    <defs></defs>
    <g id="Page-1" stroke="none" stroke-width="1" fill="none" fill-rule="evenodd">
        <g id="Style-guide-v2" transform="translate(-277.000000, -1211.000000)" fill="#FF7473">
            <g id="Group-Copy-3" transform="translate(133.000000, 1150.000000)">
                <path d="M147.457401,84.1199577 C147.240958,83.7630637 147.037424,83.3954169 146.84726,83.017786 C145.803541,80.9451513 144.789086,78.4996415 144.789086,76 C144.789086,67.7157288 151.335229,61 159.6195,61 C167.903771,61 174.364157,67.7157288 174.364157,76 C174.479263,76.8545193 174.367876,77.852912 174.062896,78.9214106 C174.04933,79.1052382 173.999305,79.3020156 173.90934,79.5065911 L173.741311,79.8886846 C173.565897,80.3530087 173.35794,80.8258701 173.11989,81.3017745 L160.478109,110.048762 C160.026151,111.076498 159.306725,111.064924 158.859857,110.048762 L147.457401,84.1199577 Z" id="Combined-Shape-Copy"></path>
            </g>
        </g>
    </g>
</svg>