<?xml version="1.0" encoding="UTF-8" standalone="no"?>
<svg width="30px" height="50px" viewBox="0 0 30 50" version="1.1" xmlns="http://www.w3.org/2000/svg" xmlns:xlink="http://www.w3.org/1999/xlink">
    <!-- Generator: Sketch 3.6.1 (26313) - http://www.bohemiancoding.com/sketch -->
    <title>Combined Shape Copy</title>
    <desc>Created with Sketch.</desc>
    <defs></defs>
    <g id="Page-1" stroke="none" stroke-width="1" fill="none" fill-rule="evenodd">
        <g id="Style-guide-v2" transform="translate(-481.000000, -1211.000000)" fill="#47B8E0">
            <g id="Group-Copy-3" transform="translate(133.000000, 1150.000000)">
                <path d="M350.696401,84.1199577 C350.479958,83.7630637 350.276424,83.3954169 350.08626,83.017786 C349.042541,80.9451513 348.028086,78.4996415 348.028086,76 C348.028086,67.7157288 354.574229,61 362.8585,61 C371.142771,61 377.603157,67.7157288 377.603157,76 C377.718263,76.8545193 377.606876,77.852912 377.301896,78.9214106 C377.288329,79.1052382 377.238304,79.3020156 377.14834,79.5065911 L376.980311,79.8886846 C376.804897,80.3530087 376.59694,80.8258701 376.35889,81.3017745 L363.717108,110.048762 C363.265151,111.076498 362.545725,111.064924 362.098857,110.048762 L350.696401,84.1199577 Z" id="Combined-Shape-Copy"></path>
            </g>
        </g>
    </g>
</svg>