<?xml version="1.0" encoding="UTF-8" standalone="no"?>
<svg width="30px" height="50px" viewBox="0 0 30 50" version="1.1" xmlns="http://www.w3.org/2000/svg" xmlns:xlink="http://www.w3.org/1999/xlink">
    <!-- Generator: Sketch 3.6.1 (26313) - http://www.bohemiancoding.com/sketch -->
    <title>Combined Shape Copy</title>
    <desc>Created with Sketch.</desc>
    <defs></defs>
    <g id="Page-1" stroke="none" stroke-width="1" fill="none" fill-rule="evenodd">
        <g id="Style-guide-v2" transform="translate(-594.000000, -1211.000000)" fill="#004E66">
            <g id="Group-Copy-3" transform="translate(133.000000, 1150.000000)">
                <g id="Group-5" transform="translate(427.000000, 61.000000)">
                    <path d="M36.6683148,23.1199577 C36.4518722,22.7630637 36.2483384,22.3954169 36.0581743,22.017786 C35.0144548,19.9451513 34,17.4996415 34,15 C34,6.71572875 40.5461429,0 48.8304141,0 C57.1146854,0 63.5750713,6.71572875 63.5750713,15 C63.6901769,15.8545193 63.5787904,16.852912 63.2738102,17.9214106 C63.2602437,18.1052382 63.2102187,18.3020156 63.1202545,18.5065911 L62.952225,18.8886846 C62.7768109,19.3530087 62.5688539,19.8258701 62.3308043,20.3017745 L49.6890227,49.0487621 C49.2370652,50.0764982 48.5176393,50.0649243 48.0707716,49.0487621 L36.6683148,23.1199577 Z" id="Combined-Shape-Copy"></path>
                </g>
            </g>
        </g>
    </g>
</svg>